<?xml version="1.0" encoding="UTF-8"?>
<svg xmlns="http://www.w3.org/2000/svg" width="100pt" height="100pt" viewBox="0 0 100 100" version="1.1">
    <g id="surface1">
        <path style=" stroke:none;fill-rule:nonzero;fill:#5B5B5B;fill-opacity:1;"
              d="M 50 13.035156 C 49.652344 13.035156 49.304688 13.195313 49.128906 13.511719 L 9.128906 84.511719 C 8.953125 84.820313 8.957031 85.195313 9.136719 85.503906 C 9.316406 85.8125 9.644531 86 10 86 L 90 86 C 90.355469 86 90.683594 85.8125 90.863281 85.503906 C 91.042969 85.199219 91.046875 84.820313 90.871094 84.511719 L 50.871094 13.511719 C 50.695313 13.195313 50.347656 13.035156 50 13.035156 Z M 50 16.035156 L 88.289063 84 L 11.710938 84 Z M 50 24.730469 C 49.828125 24.726563 49.652344 24.808594 49.5625 24.964844 L 22.355469 73.253906 C 22.21875 73.496094 22.304688 73.800781 22.546875 73.9375 C 22.621094 73.980469 22.707031 74 22.789063 74 C 22.964844 74 23.132813 73.90625 23.226563 73.746094 L 50 26.230469 L 57.5625 39.65625 C 57.699219 39.894531 58.007813 39.976563 58.246094 39.84375 C 58.484375 39.707031 58.570313 39.402344 58.4375 39.160156 L 50.4375 24.964844 C 50.347656 24.808594 50.171875 24.730469 50 24.730469 Z M 59.121094 41.003906 C 59.058594 41.011719 58.992188 41.03125 58.933594 41.0625 C 58.691406 41.199219 58.605469 41.503906 58.742188 41.746094 L 59.308594 42.746094 C 59.398438 42.910156 59.566406 43 59.742188 43 C 59.828125 43 59.910156 42.980469 59.984375 42.9375 C 60.226563 42.800781 60.3125 42.496094 60.175781 42.253906 L 59.613281 41.253906 C 59.511719 41.074219 59.3125 40.980469 59.121094 41.003906 Z M 47.5 44 C 47.363281 44 47.238281 44.054688 47.140625 44.152344 C 47.046875 44.246094 46.996094 44.378906 47 44.515625 L 47.5 63.515625 C 47.507813 63.785156 47.730469 64 48 64 L 52 64 C 52.269531 64 52.492188 63.785156 52.5 63.515625 L 53 44.515625 C 53.003906 44.378906 52.953125 44.246094 52.859375 44.152344 C 52.761719 44.054688 52.636719 44 52.5 44 Z M 60.8125 44.003906 C 60.746094 44.011719 60.683594 44.03125 60.625 44.0625 C 60.382813 44.199219 60.296875 44.503906 60.433594 44.746094 L 61.5625 46.746094 C 61.652344 46.910156 61.820313 47 61.996094 47 C 62.082031 47 62.164063 46.980469 62.238281 46.9375 C 62.480469 46.800781 62.566406 46.496094 62.433594 46.253906 L 61.304688 44.253906 C 61.203125 44.074219 61.003906 43.980469 60.8125 44.003906 Z M 48.011719 45 L 51.984375 45 L 51.511719 63 L 48.484375 63 Z M 63.0625 48 C 63 48.007813 62.9375 48.03125 62.878906 48.0625 C 62.636719 48.199219 62.550781 48.503906 62.6875 48.746094 L 79.734375 79 L 22.5 79 C 22.222656 79 22 79.222656 22 79.5 C 22 79.777344 22.222656 80 22.5 80 L 80.589844 80 C 80.769531 80 80.929688 79.90625 81.019531 79.75 C 81.113281 79.597656 81.113281 79.410156 81.027344 79.253906 L 63.558594 48.253906 C 63.457031 48.070313 63.257813 47.980469 63.0625 48 Z M 50 67 C 48.347656 67 47 68.347656 47 70 C 47 71.652344 48.347656 73 50 73 C 51.652344 73 53 71.652344 53 70 C 53 68.347656 51.652344 67 50 67 Z M 50 68 C 51.101563 68 52 68.898438 52 70 C 52 71.101563 51.101563 72 50 72 C 48.898438 72 48 71.101563 48 70 C 48 68.898438 48.898438 68 50 68 Z "/>
    </g>
</svg>
